# xmcd
#
# Track frame offsets: 
#        150
#        18868
#        40866
#        56899
#        71291
#        93978
#        109794
#        131341
#        148535
#        174846
#        190004
#        218435
#        245338
#        266599
#
# Disc length: 4056 seconds
#
# Revision: 0
# Processed by: cddbd v1.5.2PL0 Copyright (c) Steve Scherf et al.
# Submitted via: ExactAudioCopy v0.99pb4
#
DISCID=b40fd60e
DTITLE=The Life And Times Of The Brothers Hogg - The Life And Times Of
DTITLE=The Brothers Hogg
DYEAR=2013
DGENRE=Alt. Country
TTITLE0=Lunacy of Laudanum
TTITLE1=The Holy Trinity
TTITLE2=Ad Infinitum (The Maths Song)
TTITLE3=10,000 Miles
TTITLE4=Dragon
TTITLE5=Future Blues
TTITLE6=0 44
TTITLE7=The Dead and Me
TTITLE8=Drinkin' Song
TTITLE9=The Hawk and The Wren
TTITLE10=Jerusalem/I Will Survive
TTITLE11=The Lover and The Thief
TTITLE12=Josephine
TTITLE13=Murder Ballad #4
EXTD=
EXTT0=
EXTT1=
EXTT2=
EXTT3=
EXTT4=
EXTT5=
EXTT6=
EXTT7=
EXTT8=
EXTT9=
EXTT10=
EXTT11=
EXTT12=
EXTT13=
PLAYORDER=
